<?xml version="1.0" standalone="no"?>
<!DOCTYPE svg PUBLIC "-//W3C//DTD SVG 20010904//EN"
 "http://www.w3.org/TR/2001/REC-SVG-20010904/DTD/svg10.dtd">
<svg version="1.0" xmlns="http://www.w3.org/2000/svg"
 width="400.000000pt" height="400.000000pt" viewBox="0 0 400.000000 400.000000"
 preserveAspectRatio="xMidYMid meet">
<metadata>
Created by potrace 1.14, written by Peter Selinger 2001-2017
</metadata>
<g transform="translate(0.000000,400.000000) scale(0.100000,-0.100000)"
fill="#000000" stroke="none">
<path d="M0 3150 c0 -467 2 -850 4 -850 15 0 66 24 66 31 0 4 6 6 14 3 8 -3
47 5 88 17 103 31 199 31 263 0 66 -31 112 -67 112 -87 0 -9 -13 -24 -29 -34
-30 -18 -60 -53 -67 -80 -11 -43 -10 -127 1 -150 8 -14 31 -34 53 -45 53 -26
51 -25 37 -34 -7 -4 -13 -29 -14 -57 0 -27 -6 -53 -12 -57 -7 -6 -6 -7 4 -4
13 3 50 -31 50 -47 0 -4 9 -17 20 -29 11 -12 18 -27 16 -33 -10 -26 20 -45 77
-51 57 -6 69 -17 45 -41 -10 -10 -10 -15 2 -22 11 -7 18 -2 29 20 16 33 29 38
38 15 5 -14 8 -14 24 1 24 22 29 16 36 -37 4 -29 3 -40 -5 -35 -7 4 -10 -10
-7 -46 4 -64 12 -88 31 -88 17 0 56 -21 67 -35 4 -5 5 -21 3 -35 -4 -18 -1
-15 10 10 15 32 46 70 59 70 3 0 5 -8 5 -17 1 -17 1 -17 11 0 16 27 29 20 50
-28 30 -69 28 -241 -4 -331 -35 -98 -175 -269 -265 -326 -30 -18 -38 -19 -73
-9 -81 24 -111 147 -91 373 1 9 24 44 52 77 48 58 68 99 35 71 -11 -9 -15 -9
-15 -1 0 8 -9 7 -29 -4 -36 -18 -45 -31 -30 -41 8 -4 9 -3 5 4 -3 6 2 16 13
21 47 26 57 2 11 -26 -16 -9 -30 -22 -30 -29 0 -12 -67 -84 -113 -121 -36 -28
-133 -65 -175 -66 -43 0 -84 31 -99 75 -31 94 -12 263 42 368 23 45 18 50 -28
27 -36 -19 -59 -22 -164 -22 l-123 0 0 -708 0 -707 281 2 281 3 23 90 c32 127
73 233 106 280 48 67 131 142 199 181 81 45 208 96 221 88 5 -3 23 6 39 19 16
14 46 31 65 37 29 10 34 14 24 26 -6 8 -19 14 -28 14 -15 0 -41 59 -41 94 0 8
-3 16 -7 18 -10 4 -43 135 -43 170 0 37 28 116 52 149 28 37 68 53 110 43 18
-4 52 -7 75 -5 42 3 42 3 67 -51 30 -67 46 -118 46 -148 0 -23 1 -23 16 -8 11
11 14 22 8 35 -4 10 -8 23 -9 28 0 6 -7 21 -14 35 -10 17 -11 25 -2 28 6 2 11
10 11 18 0 9 -5 12 -10 9 -12 -8 -13 27 -1 78 5 20 5 37 1 37 -4 0 -11 7 -14
16 -3 8 -2 12 4 9 6 -3 10 3 10 14 0 14 5 19 15 15 8 -4 15 -2 16 2 2 27 9 45
24 66 10 14 16 17 14 8 -1 -8 -1 -23 0 -33 1 -17 2 -17 17 -3 20 21 44 20 44
0 0 -11 5 -14 16 -10 12 5 15 2 10 -11 -6 -15 -5 -16 5 -5 10 9 10 15 1 24
-15 15 -16 32 -2 23 6 -3 10 -2 10 4 0 6 6 8 13 5 8 -3 20 2 27 11 7 8 21 15
31 15 10 0 21 5 24 10 3 6 15 10 26 10 10 0 19 6 19 14 0 16 -19 15 -79 -6
-95 -31 -267 -5 -327 50 -15 15 -34 27 -41 28 -16 3 -59 55 -55 67 1 5 -10 30
-26 55 -36 61 -57 114 -71 182 -7 30 -20 96 -31 145 -10 50 -19 128 -19 174
l-1 83 28 -8 c15 -4 57 -8 94 -8 60 0 70 3 96 27 16 15 39 56 51 91 35 100 79
128 146 95 27 -13 36 -29 49 -91 15 -69 135 -148 225 -148 29 0 65 7 80 15 39
20 78 68 86 107 7 29 9 30 20 14 7 -9 16 -13 19 -8 3 5 -1 18 -9 28 -8 10 -14
26 -15 34 0 13 1 13 10 0 8 -13 14 -12 46 5 35 18 36 19 46 1 8 -15 12 -16 19
-5 8 12 11 12 19 -1 5 -8 7 -21 5 -29 -3 -8 -1 -18 6 -21 6 -4 14 -23 18 -41
6 -30 12 -36 54 -49 47 -15 62 -30 30 -30 -10 0 -14 -4 -8 -8 6 -4 15 -17 22
-29 10 -17 10 -23 0 -27 -9 -5 -9 -7 1 -12 6 -3 12 -19 12 -35 0 -17 -4 -28
-9 -25 -12 8 -22 -47 -10 -58 14 -15 11 -39 -4 -33 -8 3 -21 -13 -35 -40 -15
-31 -17 -41 -7 -33 12 10 15 10 15 -1 0 -8 -4 -21 -10 -29 -6 -9 -5 -17 3 -22
9 -6 9 -8 -1 -8 -7 0 -11 -4 -8 -9 9 -13 -16 -76 -42 -105 -24 -28 -27 -36
-14 -36 5 0 15 11 22 25 10 19 16 22 27 14 10 -9 13 -8 13 2 0 12 2 12 9 0 7
-11 10 -9 16 9 4 12 3 25 -1 29 -12 8 -14 41 -3 41 5 0 9 -7 9 -15 0 -8 5 -15
10 -15 6 0 10 6 10 14 0 8 5 18 12 22 8 5 9 2 5 -9 -3 -9 -1 -19 4 -23 6 -3 9
-17 6 -30 -2 -13 2 -29 10 -36 8 -6 13 -7 12 -2 -2 5 1 20 6 34 8 25 9 24 16
-9 4 -19 3 -45 -2 -58 -5 -13 -6 -37 -2 -55 5 -24 3 -29 -7 -23 -9 5 -11 4 -6
-4 11 -17 -3 -51 -22 -52 -14 0 -15 -2 -2 -7 17 -8 27 -62 12 -62 -6 0 -9 -8
-7 -17 2 -10 4 -25 4 -33 1 -13 2 -13 11 0 5 8 10 11 11 5 0 -5 2 -21 3 -34 3
-21 1 -22 -9 -8 -17 24 -24 11 -15 -28 4 -19 5 -37 1 -41 -3 -4 2 -4 11 -1 10
3 21 1 24 -5 5 -8 10 -5 15 8 6 16 8 15 8 -8 1 -15 6 -30 12 -34 6 -3 9 -15 6
-25 -3 -11 -1 -17 4 -13 5 3 9 1 9 -5 0 -5 -4 -13 -10 -16 -13 -8 -13 -25 1
-25 6 0 17 7 26 15 22 22 47 0 40 -35 -3 -14 -2 -32 4 -40 6 -11 9 0 9 33 0
26 4 47 10 47 5 0 9 3 8 8 -1 4 1 17 6 29 12 37 47 24 73 -27 13 -24 20 -46
15 -49 -4 -4 -8 -25 -10 -47 -1 -30 2 -43 13 -48 11 -4 15 2 15 23 0 39 26 48
62 21 37 -27 43 -25 21 8 -25 36 -45 83 -38 90 3 3 5 -1 5 -9 0 -12 2 -12 10
1 6 9 5 17 -3 22 -9 6 -9 8 0 8 6 0 14 14 18 30 6 28 25 43 25 20 0 -6 12 -16
28 -22 15 -7 35 -21 45 -32 14 -18 16 -18 11 -3 -6 15 -3 17 20 11 20 -5 26
-2 26 10 0 9 5 16 10 16 6 0 10 -4 10 -10 0 -5 6 -10 14 -10 9 0 12 7 9 20 -3
11 0 33 6 48 7 16 13 39 15 53 8 60 19 89 40 95 11 4 77 7 146 7 69 1 110 2
92 4 l-33 4 32 22 c34 24 59 80 59 135 0 19 4 31 10 27 6 -4 7 5 4 23 -5 24
-2 30 16 35 12 3 19 10 16 16 -12 19 17 51 39 44 16 -5 18 -3 9 8 -6 8 -11 30
-13 48 -1 19 -4 37 -6 39 -10 10 59 62 81 62 27 0 57 15 92 44 20 17 21 26 16
70 -7 53 -38 126 -54 126 -5 0 -12 9 -15 20 -3 11 -13 20 -21 20 -18 0 -10 35
13 62 8 9 12 21 9 26 -10 17 49 31 91 21 55 -12 63 -10 24 6 -18 8 -37 13 -41
10 -5 -3 -11 -1 -15 5 -4 6 -10 8 -15 5 -12 -8 -31 21 -24 38 3 9 14 19 25 22
10 4 19 11 19 16 0 6 -10 3 -22 -5 -31 -22 -36 -20 -33 12 3 42 15 72 28 72 6
0 1 7 -11 16 -14 10 -32 14 -47 10 -21 -5 -30 1 -61 44 -20 28 -41 47 -47 43
-7 -4 -8 0 -4 11 4 10 7 23 7 29 0 7 5 6 11 -3 8 -12 9 -11 7 5 -2 11 4 27 12
35 9 8 10 11 2 6 -18 -13 -6 40 17 74 l18 25 -78 -4 c-134 -6 -203 45 -187
139 12 71 57 168 91 194 l30 24 -83 -24 c-85 -25 -124 -29 -180 -18 -43 9 -71
72 -64 144 2 29 0 58 -6 68 -11 16 -11 16 -6 -1 4 -14 2 -16 -12 -8 -9 5 -33
9 -53 9 -30 0 -44 7 -72 39 -20 21 -42 57 -49 81 -7 23 -16 42 -20 42 -4 0 -8
7 -8 16 0 12 -13 4 -44 -24 -61 -57 -101 -75 -143 -67 -24 4 -40 15 -51 36
-24 41 -116 69 -205 62 l-64 -6 -60 60 -59 59 -46 -31 c-61 -42 -107 -49 -163
-25 -61 26 -98 97 -97 190 0 36 -4 74 -9 85 -5 12 -8 -17 -8 -77 -1 -65 3 -98
11 -100 19 -7 -43 -111 -74 -126 -57 -27 -135 -37 -186 -24 -57 16 -152 61
-152 73 0 5 -3 9 -7 9 -5 0 -7 -26 -6 -57 1 -53 -5 -78 -39 -150 -15 -31 -62
-50 -140 -57 -57 -6 -68 -4 -77 11 -9 16 -10 16 -11 2 0 -19 -26 -32 -42 -22
-6 3 -8 2 -5 -3 8 -14 -29 -118 -45 -126 -7 -3 -33 -11 -57 -18 -24 -6 -57
-25 -73 -40 -25 -25 -28 -36 -28 -89 l0 -60 -39 14 c-69 24 -100 44 -172 112
-43 41 -91 100 -125 155 -54 88 -55 91 -64 193 -11 126 3 186 56 245 l35 38
52 -12 c29 -7 90 -32 137 -56 70 -36 103 -62 189 -149 58 -58 96 -95 84 -81
-11 14 -29 47 -39 74 -17 48 -56 123 -115 221 -16 28 -49 92 -74 143 l-45 92
-335 0 -335 0 0 -850z m1597 38 c-3 -8 -6 -5 -6 6 -1 11 2 17 5 13 3 -3 4 -12
1 -19z m-1150 -33 c103 -29 140 -46 198 -88 41 -29 64 -60 65 -86 0 -8 10 -25
22 -38 19 -21 47 -83 48 -107 0 -4 -7 -6 -14 -3 -9 4 -17 -1 -21 -12 -7 -23
-97 -51 -162 -51 -66 0 -71 -13 -33 -97 l30 -65 -21 -49 c-38 -88 -146 -164
-229 -160 -139 6 -249 104 -295 262 -15 55 -15 58 5 92 11 19 31 37 43 41 28
7 197 -2 260 -15 85 -16 85 1 0 61 -45 33 -94 78 -119 112 -23 32 -58 73 -78
91 -44 42 -48 82 -12 124 l24 28 98 -6 c58 -4 137 -18 191 -34z m1133 -34 c0
-6 9 -8 20 -6 12 2 20 -2 20 -10 0 -15 54 -60 71 -60 6 0 18 -10 27 -21 23
-29 116 -82 110 -63 -3 8 -11 14 -18 14 -7 0 -15 6 -18 14 -3 8 0 11 6 7 6 -3
14 -2 17 4 5 8 11 8 20 0 10 -8 15 -8 21 1 4 8 3 9 -4 5 -7 -4 -12 -2 -12 3 0
6 2 11 4 11 2 0 12 3 22 7 12 4 15 3 10 -6 -10 -15 32 -53 48 -44 6 4 5 -1 -3
-10 -14 -18 -36 -24 -26 -7 3 6 1 10 -4 10 -6 0 -11 -6 -11 -12 0 -9 -3 -8
-10 2 -8 12 -10 12 -16 -3 -8 -21 -4 -25 22 -30 59 -9 104 -47 72 -60 -9 -4
-6 -8 7 -12 11 -4 29 -25 40 -48 14 -28 30 -44 52 -51 42 -15 45 -18 48 -68 5
-55 32 -120 60 -140 6 -4 -5 -21 -24 -40 -19 -18 -31 -27 -27 -20 6 11 1 12
-27 8 -31 -5 -40 -1 -74 33 -50 48 -129 102 -137 94 -3 -4 -6 -2 -6 4 0 14
-38 24 -45 12 -6 -9 -35 -1 -35 10 0 4 12 8 27 9 15 1 30 8 35 15 6 9 8 9 8 0
0 -9 15 -13 43 -13 54 1 30 17 -38 27 -47 6 -176 -18 -223 -43 -21 -10 -16
-12 37 -10 34 0 61 5 61 10 0 5 3 6 6 3 4 -4 1 -13 -6 -22 -8 -10 -9 -15 -1
-15 22 0 10 -20 -21 -35 -23 -10 -26 -14 -10 -11 32 6 22 -16 -11 -25 -18 -5
-25 -4 -21 3 4 7 0 7 -12 0 -11 -6 -30 -31 -44 -56 -25 -47 -34 -54 -45 -36
-3 6 -27 10 -52 10 -34 0 -53 -6 -69 -21 l-23 -21 6 21 c4 15 -5 31 -33 58
-42 41 -113 79 -123 66 -3 -5 -17 -8 -31 -7 -41 2 -46 4 -27 15 9 6 26 7 37 4
21 -7 28 10 8 18 -7 2 -10 7 -7 11 4 4 13 1 20 -7 12 -12 16 -12 27 2 12 14
13 14 9 0 -4 -12 3 -15 29 -15 32 1 50 16 19 16 -8 0 -15 5 -15 11 0 5 4 8 9
5 5 -3 14 1 20 8 15 18 6 24 -61 41 -34 9 -66 11 -101 5 -29 -4 -55 -6 -59 -4
-10 7 -3 51 11 68 7 9 14 41 15 71 2 31 8 61 14 67 8 8 9 5 5 -11 -3 -12 -1
-21 6 -21 6 0 11 11 11 25 0 25 30 86 57 117 8 9 28 20 44 23 16 4 37 16 46
29 20 25 63 44 108 48 17 2 32 6 35 9 6 7 62 36 73 38 4 1 7 -3 7 -8z m580
-511 c5 0 7 -7 3 -15 -5 -14 -8 -14 -24 1 -11 9 -19 29 -19 43 l1 26 15 -27
c8 -16 19 -28 24 -28z m-920 -10 c0 -5 -11 -10 -24 -10 -14 0 -28 5 -31 10 -4
6 7 10 24 10 17 0 31 -4 31 -10z m-96 -35 c-15 -14 -29 -24 -31 -22 -8 8 10
36 25 40 32 9 33 7 6 -18z m678 11 c20 -10 28 -11 31 -3 3 8 13 4 29 -10 13
-13 30 -23 36 -23 23 0 61 -31 81 -66 16 -27 17 -34 6 -34 -8 0 -15 7 -15 15
0 8 -4 15 -8 15 -5 0 -30 16 -56 37 -42 32 -54 37 -121 41 -76 5 -93 15 -52
32 31 12 38 12 69 -4z m-721 -109 c-10 -9 -11 -8 -5 6 3 10 9 15 12 12 3 -3 0
-11 -7 -18z m525 -53 l-15 -39 0 36 c-1 19 5 41 11 47 19 19 20 1 4 -44z m278
38 c2 -4 -5 -9 -17 -9 -17 -2 -19 0 -7 7 18 12 18 12 24 2z m-814 -23 c0 -11
-4 -18 -10 -14 -5 3 -7 12 -3 20 7 21 13 19 13 -6z m124 5 c9 -24 7 -28 -9
-14 -17 14 -20 30 -6 30 5 0 12 -7 15 -16z m547 -51 c1 -10 1 -22 0 -27 -1 -5
5 -6 13 -3 21 8 28 -4 13 -22 -10 -14 -10 -14 5 -3 9 8 22 11 27 8 5 -4 13 -1
16 4 4 6 28 10 53 8 36 -2 47 0 48 12 2 29 4 31 23 13 22 -20 18 -73 -5 -73
-18 0 -29 -21 -15 -29 6 -4 -1 -14 -19 -25 -17 -9 -28 -21 -26 -25 7 -11 -59
-7 -75 5 -29 23 -49 24 -49 3 0 -19 0 -19 -41 1 -25 13 -39 26 -36 34 3 8 0
19 -6 25 -9 10 -5 10 16 2 29 -11 47 -7 47 10 0 5 -9 9 -20 9 -11 0 -21 6 -21
13 -1 6 -2 19 -3 27 -2 19 23 50 41 50 7 0 14 -8 14 -17z m-101 -79 c0 0 -7
-1 -15 -1 -8 0 -13 2 -11 5 3 2 0 15 -5 29 -5 14 -6 29 -3 35 5 8 29 -41 34
-68z m158 51 c-3 -3 -9 2 -12 12 -6 14 -5 15 5 6 7 -7 10 -15 7 -18z m-658
-50 c0 -7 -6 -15 -14 -18 -17 -7 -41 17 -32 32 8 13 46 2 46 -14z m196 -20 c3
-36 -21 -31 -24 5 -2 20 2 28 10 25 7 -3 14 -16 14 -30z m-106 -14 c0 -5 9
-11 20 -14 11 -3 20 -1 20 4 0 4 6 6 13 3 8 -3 14 -11 14 -18 0 -9 -18 -15
-56 -19 -57 -5 -91 5 -91 25 0 7 5 6 15 -2 8 -7 16 -10 16 -6 2 10 6 26 8 29
3 7 41 5 41 -2z m1000 -15 c0 -3 -4 -8 -10 -11 -5 -3 -10 -1 -10 4 0 6 5 11
10 11 6 0 10 -2 10 -4z m298 -188 c18 -18 14 -67 -7 -102 -35 -55 -72 -75
-163 -85 -45 -5 -84 -14 -86 -20 -6 -17 -19 -13 -19 7 0 20 25 52 42 52 7 0
16 11 19 24 5 19 14 25 39 28 26 2 33 8 35 30 7 56 104 102 140 66z m-258 -18
c0 -5 -5 -10 -11 -10 -5 0 -7 5 -4 10 3 6 8 10 11 10 2 0 4 -4 4 -10z m40 -51
c0 -5 -9 -9 -20 -9 -11 0 -20 4 -20 8 0 4 9 8 20 9 11 1 20 -2 20 -8z m-10
-204 c0 -5 -5 -3 -10 5 -5 8 -10 20 -10 25 0 6 5 3 10 -5 5 -8 10 -19 10 -25z
m388 -102 c-3 -31 -38 -47 -38 -18 0 10 5 13 12 9 8 -5 9 0 6 14 -4 15 -2 22
9 22 10 0 13 -9 11 -27z m-381 -335 c-3 -8 -6 -5 -6 6 -1 11 2 17 5 13 3 -3 4
-12 1 -19z"/>
<path d="M125 3090 c3 -5 8 -10 11 -10 2 0 4 5 4 10 0 6 -5 10 -11 10 -5 0 -7
-4 -4 -10z"/>
<path d="M678 2983 c7 -3 16 -2 19 1 4 3 -2 6 -13 5 -11 0 -14 -3 -6 -6z"/>
<path d="M1415 2580 c3 -5 8 -10 11 -10 2 0 4 5 4 10 0 6 -5 10 -11 10 -5 0
-7 -4 -4 -10z"/>
<path d="M1878 2316 c-10 -7 -15 -16 -11 -19 10 -10 25 -8 19 2 -4 5 0 11 6
14 7 2 11 7 8 10 -3 3 -13 0 -22 -7z"/>
<path d="M2480 2046 c0 -20 17 -29 23 -14 3 7 6 4 6 -7 1 -12 -5 -27 -11 -34
-11 -10 -9 -12 6 -9 32 5 43 34 22 57 -22 24 -46 27 -46 7z"/>
<path d="M2424 1988 c-8 -12 24 -40 38 -32 10 6 -9 44 -22 44 -5 0 -12 -5 -16
-12z"/>
<path d="M1109 3920 c84 -75 104 -102 105 -140 1 -8 6 -14 13 -13 7 2 10 -3 8
-10 -3 -6 4 -18 16 -26 20 -12 21 -11 14 6 -15 39 -24 71 -45 166 l-22 97 -89
0 -89 0 89 -80z"/>
<path d="M2680 3995 c0 -6 50 -107 56 -114 2 -2 16 9 30 25 15 16 40 44 57 62
l31 32 -87 0 c-48 0 -87 -2 -87 -5z"/>
<path d="M3120 3976 c0 -13 -14 -95 -30 -182 -17 -87 -29 -163 -27 -168 2 -6
16 14 32 44 15 30 31 57 35 60 4 3 11 20 15 37 3 18 11 35 15 38 5 3 18 26 29
50 11 24 33 64 50 89 17 25 31 47 31 50 0 3 -34 6 -75 6 -73 0 -75 -1 -75 -24z"/>
<path d="M3398 3987 c17 -20 29 -119 20 -152 -20 -69 -38 -137 -38 -144 0 -5
23 -11 51 -15 74 -10 138 -55 129 -91 -1 -5 -4 -25 -7 -44 -11 -95 -108 -213
-260 -317 -62 -42 -65 -45 -33 -39 19 4 47 14 62 21 31 16 72 19 63 4 -11 -18
10 -10 28 10 9 11 25 20 35 20 10 0 22 3 25 7 4 4 39 15 78 24 69 18 71 18
124 -2 30 -11 66 -22 81 -25 15 -3 40 -12 56 -20 17 -9 27 -11 24 -5 -10 15
44 10 70 -6 31 -19 34 -44 13 -89 -10 -22 -18 -43 -19 -48 0 -8 -34 -53 -70
-93 l-20 -22 38 -6 c46 -7 122 -44 129 -63 18 -46 -61 -160 -144 -208 -26 -16
-41 -30 -35 -36 4 -4 48 -13 97 -19 48 -5 92 -12 96 -15 5 -3 9 304 9 690 l0
696 -306 0 c-250 0 -304 -2 -296 -13z"/>
<path d="M2857 3983 c-4 -3 -7 -13 -7 -22 1 -13 3 -13 11 2 11 19 8 33 -4 20z"/>
<path d="M1966 3965 c10 -8 23 -15 28 -15 6 0 1 7 -10 15 -10 8 -23 15 -28 15
-6 0 -1 -7 10 -15z"/>
<path d="M2730 3710 c0 -5 5 -10 10 -10 6 0 10 5 10 10 0 6 -4 10 -10 10 -5 0
-10 -4 -10 -10z"/>
<path d="M3120 3690 c-8 -5 -12 -12 -9 -15 4 -3 12 1 19 10 14 17 11 19 -10 5z"/>
<path d="M2630 3671 c0 -6 4 -13 10 -16 6 -3 7 1 4 9 -7 18 -14 21 -14 7z"/>
<path d="M555 3640 c3 -5 8 -10 11 -10 2 0 4 5 4 10 0 6 -5 10 -11 10 -5 0 -7
-4 -4 -10z"/>
<path d="M3041 3583 c-10 -26 -10 -27 4 -9 8 11 15 23 15 28 0 15 -7 8 -19
-19z"/>
<path d="M3850 3181 c0 -7 -4 -9 -10 -6 -5 3 -10 1 -10 -4 0 -6 4 -11 9 -11
13 0 25 20 17 27 -3 4 -6 1 -6 -6z"/>
<path d="M3210 3149 c-12 -9 -12 -10 4 -5 14 5 17 3 12 -11 -6 -15 -5 -16 5
-5 18 17 -1 35 -21 21z"/>
<path d="M3235 3109 c-4 -6 -5 -12 -2 -15 2 -3 7 2 10 11 7 17 1 20 -8 4z"/>
<path d="M3315 3090 c-3 -6 1 -7 9 -4 18 7 21 14 7 14 -6 0 -13 -4 -16 -10z"/>
<path d="M3265 3030 c-13 -6 -15 -9 -5 -9 8 0 22 4 30 9 18 12 2 12 -25 0z"/>
<path d="M3385 2710 c-3 -6 1 -7 9 -4 18 7 21 14 7 14 -6 0 -13 -4 -16 -10z"/>
<path d="M3375 2660 c-19 -8 -19 -9 3 -9 12 -1 22 4 22 9 0 6 -1 10 -2 9 -2 0
-12 -4 -23 -9z"/>
<path d="M3965 2430 c-39 -26 -168 -67 -237 -75 -86 -10 -86 -14 -3 -48 44
-18 102 -47 128 -65 26 -17 51 -32 55 -33 4 0 22 -18 41 -40 38 -45 46 -106
17 -137 -9 -10 -16 -25 -16 -33 0 -61 -251 -159 -407 -159 l-68 0 86 -43 c189
-95 266 -178 283 -303 8 -56 4 -62 -55 -82 -29 -10 -50 -9 -110 2 -72 14 -182
51 -240 82 -38 19 -36 9 6 -45 50 -63 83 -138 96 -222 14 -94 1 -144 -42 -153
-16 -3 -29 -12 -29 -20 0 -11 -9 -12 -47 -4 -132 25 -196 51 -274 110 -70 53
-72 53 -42 -3 24 -47 28 -65 28 -142 0 -57 -4 -90 -12 -95 -6 -4 -13 -27 -15
-51 -3 -40 -7 -46 -60 -84 -43 -29 -70 -41 -107 -45 -45 -4 -51 -2 -89 32 -38
35 -162 229 -162 254 0 7 -4 12 -9 12 -4 0 -6 -22 -3 -49 9 -93 -41 -191 -117
-231 l-36 -18 50 -22 c28 -12 64 -28 80 -35 17 -7 95 -27 175 -45 233 -52 321
-90 412 -176 73 -70 104 -111 124 -164 9 -25 22 -58 29 -75 7 -16 17 -41 22
-55 6 -14 16 -58 23 -97 l13 -73 274 0 273 0 0 1225 c0 674 -1 1225 -3 1225
-1 0 -15 -9 -32 -20z m-465 -1380 c0 -5 -5 -10 -11 -10 -5 0 -7 5 -4 10 3 6 8
10 11 10 2 0 4 -4 4 -10z"/>
<path d="M1621 2094 c0 -11 3 -14 6 -6 3 7 2 16 -1 19 -3 4 -6 -2 -5 -13z"/>
<path d="M1424 2088 c-4 -6 -3 -8 4 -4 6 3 18 -1 27 -10 20 -20 33 -11 15 11
-15 18 -36 20 -46 3z"/>
<path d="M1507 2093 c-4 -3 -2 -12 4 -20 9 -9 8 -13 0 -13 -6 0 -11 -7 -11
-15 0 -17 35 -20 46 -4 3 6 0 16 -7 21 -10 7 -5 8 15 5 l30 -5 -25 19 c-25 20
-41 23 -52 12z"/>
<path d="M1362 2065 c9 -10 21 -16 28 -13 7 2 -1 10 -16 17 -27 12 -28 11 -12
-4z"/>
<path d="M3584 2055 c-17 -13 -17 -14 -2 -15 9 0 20 5 23 11 11 17 0 20 -21 4z"/>
<path d="M0 1835 l0 -175 53 37 c28 20 66 46 82 58 42 30 140 71 207 86 61 14
73 23 36 26 -96 6 -247 60 -331 117 -21 15 -40 26 -42 26 -3 0 -5 -79 -5 -175z"/>
<path d="M3366 1905 c-3 -8 -1 -15 3 -15 5 0 11 7 15 15 3 8 1 15 -3 15 -5 0
-11 -7 -15 -15z"/>
<path d="M480 1880 c-9 -6 -10 -10 -3 -10 6 0 15 5 18 10 8 12 4 12 -15 0z"/>
<path d="M1396 1882 c-4 -7 -12 -10 -17 -7 -5 4 -9 1 -9 -6 0 -7 -13 -10 -35
-7 -19 2 -35 0 -35 -4 0 -4 6 -8 13 -8 8 0 22 -9 32 -20 11 -12 25 -18 36 -15
9 3 23 -1 31 -9 8 -8 35 -18 59 -23 24 -5 44 -14 44 -20 0 -7 5 -17 11 -23 8
-8 13 -7 17 4 4 9 2 16 -3 16 -20 0 -9 16 11 17 12 1 32 11 44 23 12 11 38 23
58 27 20 3 42 12 48 19 10 12 4 14 -32 15 -24 0 -55 0 -69 1 -14 0 -47 -2 -75
-4 -33 -3 -58 0 -72 10 -12 7 -26 11 -32 8 -5 -3 -11 -1 -13 6 -3 9 -6 9 -12
0z"/>
<path d="M2260 1760 c0 -5 5 -10 10 -10 6 0 10 5 10 10 0 6 -4 10 -10 10 -5 0
-10 -4 -10 -10z"/>
<path d="M2201 1707 c1 -18 17 -54 18 -40 1 6 4 18 7 26 3 8 -2 17 -10 20 -9
4 -16 1 -15 -6z"/>
<path d="M2180 1701 c0 -6 4 -13 10 -16 6 -3 7 1 4 9 -7 18 -14 21 -14 7z"/>
<path d="M2120 1675 c-11 -13 -10 -14 4 -9 9 3 16 10 16 15 0 13 -6 11 -20 -6z"/>
<path d="M274 1658 l-19 -23 25 20 c14 11 27 21 29 22 2 2 0 3 -6 3 -5 0 -18
-10 -29 -22z"/>
<path d="M3550 1650 c0 -6 7 -10 15 -10 8 0 15 2 15 4 0 2 -7 6 -15 10 -8 3
-15 1 -15 -4z"/>
<path d="M405 1600 c-3 -5 -2 -10 4 -10 5 0 13 5 16 10 3 6 2 10 -4 10 -5 0
-13 -4 -16 -10z"/>
<path d="M774 1563 c-17 -27 -17 -27 29 -8 47 19 54 32 16 31 -19 -1 -35 -9
-45 -23z"/>
<path d="M2015 1580 c-3 -5 -1 -10 4 -10 6 0 11 5 11 10 0 6 -2 10 -4 10 -3 0
-8 -4 -11 -10z"/>
<path d="M1970 1557 c-22 -9 -23 -11 -6 -14 10 -3 23 0 29 6 16 16 5 20 -23 8z"/>
<path d="M3221 1524 c0 -11 3 -14 6 -6 3 7 2 16 -1 19 -3 4 -6 -2 -5 -13z"/>
<path d="M695 1511 c6 -10 -53 -30 -90 -32 l-20 0 20 -8 c11 -5 27 -5 35 -1 8
5 37 11 63 15 l48 7 -27 14 c-31 16 -37 17 -29 5z"/>
<path d="M1890 1510 c-9 -6 -10 -10 -3 -10 6 0 15 5 18 10 8 12 4 12 -15 0z"/>
<path d="M1821 1486 c-14 -8 -26 -21 -27 -30 -3 -20 15 -21 22 -1 4 9 18 22
33 30 14 8 19 14 11 14 -8 0 -26 -6 -39 -13z"/>
<path d="M708 1463 c6 -2 18 -2 25 0 6 3 1 5 -13 5 -14 0 -19 -2 -12 -5z"/>
<path d="M716 1441 c-4 -5 3 -7 14 -4 23 6 26 13 6 13 -8 0 -17 -4 -20 -9z"/>
<path d="M598 1433 c7 -3 16 -2 19 1 4 3 -2 6 -13 5 -11 0 -14 -3 -6 -6z"/>
<path d="M653 1410 c-13 -5 -23 -11 -23 -14 0 -7 40 6 46 15 6 10 6 10 -23 -1z"/>
<path d="M816 1373 c-6 -14 -5 -15 5 -6 7 7 10 15 7 18 -3 3 -9 -2 -12 -12z"/>
<path d="M590 1365 c-14 -8 -20 -14 -14 -15 5 0 19 7 30 15 24 18 16 19 -16 0z"/>
<path d="M1606 1305 c4 -8 8 -15 10 -15 2 0 4 7 4 15 0 8 -4 15 -10 15 -5 0
-7 -7 -4 -15z"/>
<path d="M926 1293 c-6 -14 -5 -15 5 -6 7 7 10 15 7 18 -3 3 -9 -2 -12 -12z"/>
<path d="M2520 1251 c0 -6 4 -13 10 -16 6 -3 7 1 4 9 -7 18 -14 21 -14 7z"/>
<path d="M417 1130 c-10 -16 -13 -30 -8 -30 6 0 11 6 11 14 0 8 5 16 12 18 6
2 9 10 7 16 -2 7 -12 0 -22 -18z"/>
<path d="M2530 1122 c6 -13 14 -21 18 -18 3 4 -2 14 -12 24 -18 16 -18 16 -6
-6z"/>
<path d="M2477 1123 c-10 -9 -9 -23 1 -23 5 0 9 7 9 15 0 17 -1 18 -10 8z"/>
<path d="M2565 1080 c-3 -5 -1 -10 4 -10 6 0 11 5 11 10 0 6 -2 10 -4 10 -3 0
-8 -4 -11 -10z"/>
<path d="M3440 1080 c0 -5 5 -10 11 -10 5 0 7 5 4 10 -3 6 -8 10 -11 10 -2 0
-4 -4 -4 -10z"/>
<path d="M1520 1043 c0 -24 3 -33 9 -25 7 12 4 62 -5 62 -2 0 -4 -17 -4 -37z"/>
<path d="M362 1048 c-7 -7 -11 -21 -11 -32 1 -21 1 -21 6 -1 3 11 10 26 15 33
13 15 6 16 -10 0z"/>
<path d="M1190 921 c0 -5 5 -13 10 -16 6 -3 10 -2 10 4 0 5 -4 13 -10 16 -5 3
-10 2 -10 -4z"/>
<path d="M1340 818 c-12 -22 -12 -22 6 -6 10 10 15 20 12 24 -4 3 -12 -5 -18
-18z"/>
<path d="M1591 804 c0 -11 3 -14 6 -6 3 7 2 16 -1 19 -3 4 -6 -2 -5 -13z"/>
<path d="M1230 791 c0 -6 4 -13 10 -16 6 -3 7 1 4 9 -7 18 -14 21 -14 7z"/>
<path d="M1296 781 c-10 -11 -22 -18 -27 -16 -11 8 -23 -15 -13 -25 12 -11 68
34 62 50 -2 7 -10 4 -22 -9z"/>
<path d="M1975 19 c-4 -6 -4 -13 -1 -16 8 -8 36 5 36 17 0 13 -27 13 -35 -1z"/>
</g>
</svg>
